:SAMPLES-PER-SECOND 30
:FULLY-SPECIFIED
:DEGREES
414
root  -21.3166 24.0642 -53.3486 -160.09 13.395 176.327
RightUpLeg  -47.9154 -8.00997 -10.6231
RightLeg  103.473 0.927544 -4.52676
RightFoot  -14.8012 0.240559 2.22955
RightToes  -40.3283 -0.221111 -0.316969
Spine  21.846 -4.71635 0.171671
Spine1  33.8212 -7.9224 4.02738
HEad  -24.0862 -30.3409 49.9276
LeftShoulder1  0 -2.42657e-020 -4.95415e-022
LeftArm  -2.66578 -51.2167 -111.523
LeftForeArm  29.0346 -22.9757 -4.2788
LeftHand  0.23121 -5.23872 -5.42782
RightShoulder  0 2.42657e-020 1.07489e-018
RightArm  -38.0647 37.9494 89.2929
RightForeArm  28.9982 40.3889 8.63361
RightHand  -2.74478 23.043 -13.0397
LeftUpLeg  -83.186 -1.22499 3.62416
LeftLeg  80.8946 -2.50278 -10.9207
LeftFoot  -7.82855 0.0357849 0.522979
LeftToes  -27.5101 8.63562e-007 1.17448e-007
415
root  -21.2812 24.7155 -53.9709 -159.064 13.5112 177.137
RightUpLeg  -53.0277 -10.0394 -8.6888
RightLeg  102.242 -0.162998 2.02281
RightFoot  -14.9358 -0.0396653 0.0749537
RightToes  -47.0751 -0.277323 -0.351502
Spine  20.6595 -5.52215 -0.0138455
Spine1  32.3685 -10.6976 4.18498
HEad  -25.302 -29.4283 50.3163
LeftShoulder1  0 -2.42657e-020 -4.95415e-022
LeftArm  -4.58526 -48.3955 -109.385
LeftForeArm  28.4046 -25.8644 -4.89562
LeftHand  0.162336 -5.74872 -3.60663
RightShoulder  0 2.42657e-020 1.07489e-018
RightArm  -27.593 31.3056 94.1818
RightForeArm  36.2364 49.1618 11.7935
RightHand  -4.12711 19.1147 -23.7958
LeftUpLeg  -81.3311 -1.29447 4.19843
LeftLeg  79.2583 -2.73339 -10.5308
LeftFoot  -9.34243 0.057708 0.706243
LeftToes  -27.8382 8.63562e-007 1.17448e-007
416
root  -21.2668 25.3005 -54.5786 -157.826 15.2167 178.117
RightUpLeg  -59.4779 -11.2489 -6.7366
RightLeg  99.4814 -0.181297 3.10536
RightFoot  -16.1603 -0.142491 -0.62614
RightToes  -47.2903 -0.279181 -0.352493
Spine  19.5316 -5.58899 -0.139788
Spine1  30.8109 -11.9233 4.35691
HEad  -27.8303 -28.8969 50.4458
LeftShoulder1  0 -2.42657e-020 -4.95415e-022
LeftArm  -3.60882 -46.0027 -107.075
LeftForeArm  25.9061 -29.4678 -5.7113
LeftHand  0.335523 -6.06147 -6.70829
RightShoulder  0 2.42657e-020 1.07489e-018
RightArm  -20.1629 26.888 95.4331
RightForeArm  42.2848 54.8822 14.5595
RightHand  -4.94759 17.0676 -31.765
LeftUpLeg  -79.6234 -0.613998 4.94828
LeftLeg  77.9901 -2.63284 -9.3106
LeftFoot  -10.984 0.067518 0.702208
LeftToes  -26.9474 8.63562e-007 1.17448e-007
417
root  -21.2527 25.707 -55.2373 -156.835 18.1121 179.469
RightUpLeg  -65.8622 -10.6104 -5.45395
RightLeg  95.0587 0.0629407 2.51753
RightFoot  -16.4981 -0.147144 -0.637408
RightToes  -45.4408 -0.26334 -0.343749
Spine  18.4814 -4.71664 -0.169351
Spine1  29.4412 -10.5008 3.50782
HEad  -30.4764 -28.3963 49.8219
LeftShoulder1  0 -2.42657e-020 -4.95415e-022
LeftArm  -2.36753 -42.165 -105.492
LeftForeArm  10.8137 -35.9003 -7.32587
LeftHand  0.439948 -4.00696 -12.9187
RightShoulder  0 2.42657e-020 1.07489e-018
RightArm  -15.4408 25.5578 93.5027
RightForeArm  57.7403 56.9693 15.7513
RightHand  -5.63841 14.1574 -42.9102
LeftUpLeg  -77.8104 0.555582 5.99182
LeftLeg  77.7212 -2.19602 -7.65498
LeftFoot  -12.8773 0.065996 0.584793
LeftToes  -23.3478 8.63562e-007 1.17448e-007
418
root  -21.2369 25.9143 -56.0202 -156.716 22.6064 -179.6
RightUpLeg  -71.8428 -7.78628 -6.46991
RightLeg  89.3894 0.307351 2.61785
RightFoot  -16.4616 -0.163538 -0.75302
RightToes  -44.9496 -0.259181 -0.341341
Spine  17.8081 -3.2579 -0.447431
Spine1  28.4662 -7.91673 2.59813
HEad  -34.2718 -28.0882 48.9814
LeftShoulder1  0 -2.42657e-020 -4.95415e-022
LeftArm  -1.43849 -40.7751 -107.476
LeftForeArm  8.15186 -40.6689 -8.70771
LeftHand  0.375107 -3.92967 -11.2909
RightShoulder  0 2.42657e-020 1.07489e-018
RightArm  -13.4867 27.1447 90.3325
RightForeArm  67.7433 58.3278 16.5948
RightHand  -6.12498 12.9552 -50.1129
LeftUpLeg  -75.2393 1.71956 6.62886
LeftLeg  78.4891 -1.16627 -4.31183
LeftFoot  -15.0042 -0.0150722 -0.114462
LeftToes  -22.555 8.63562e-007 1.17448e-007
